<svg width="342" height="56" viewBox="0 0 342 56" fill="none" xmlns="http://www.w3.org/2000/svg">
<path d="M7.36929 18.1988L6.35283 16.6982L8.70338 15.1018C10.9904 13.5267 12.5998 12.5156 13.5315 12.0686C14.0609 11.8132 14.548 11.6855 14.9927 11.6855C15.4374 11.6855 15.8609 11.9409 16.2633 12.4518C18.1268 14.8144 19.6938 18.0072 20.9644 22.0301C22.2349 26.0317 22.8702 29.9162 22.8702 33.6837C22.8702 34.1732 22.849 34.9182 22.8067 35.9186C26.3854 29.2989 28.1748 24.0415 28.1748 20.1463C28.1748 19.3375 27.9948 18.2626 27.6348 16.9216C27.2537 15.4317 27.0631 14.3674 27.0631 13.7289C27.0631 13.1116 27.2537 12.6008 27.6348 12.1964C28.0372 11.7919 28.5348 11.5897 29.1277 11.5897C29.8689 11.5897 30.4618 11.8771 30.9065 12.4518C31.3724 13.0265 31.6053 13.846 31.6053 14.9102C31.6053 17.656 30.9807 21.0829 29.7313 25.1909C28.4819 29.2776 26.5125 33.6837 23.8231 38.4089C21.1549 43.1129 18.7091 46.6037 16.4856 48.8812C14.2833 51.18 12.1445 52.819 10.0692 53.7981C8.01516 54.7985 6.06696 55.2987 4.22463 55.2987C2.82701 55.2987 1.77879 55.0326 1.07998 54.5005C0.359994 53.9896 0 53.3724 0 52.6487C0 52.0101 0.275289 51.4567 0.825868 50.9884C1.37645 50.5414 2.11761 50.318 3.04936 50.318C3.76935 50.318 4.75404 50.4563 6.00343 50.733C7.33752 51.031 8.2481 51.18 8.73515 51.18C10.0269 51.18 11.3927 50.6372 12.8327 49.5517C14.8021 48.0617 16.3585 46.2844 17.5021 44.2198C18.6667 42.1551 19.2491 40.0692 19.2491 37.962C19.2491 35.0033 18.815 31.4487 17.9468 27.2981C17.0997 23.1475 15.8927 19.9761 14.3256 17.7837C13.5421 16.6556 12.7057 16.0915 11.8163 16.0915C10.7786 16.0915 9.29631 16.7939 7.36929 18.1988Z" fill="#1C77FF"/>
<path d="M55.1744 11.1747L57.2708 10.7277L54.8885 18.8054C53.9356 22.0194 53.0356 25.723 52.1885 29.9162C51.7227 32.1937 51.4897 33.6624 51.4897 34.3222C51.4897 34.982 51.7544 35.312 52.2838 35.312C52.6226 35.312 53.1626 35.0885 53.9038 34.6415C55.2167 33.8539 56.4767 32.8748 57.6837 31.7041L58.7002 32.9493C56.2861 35.163 54.7402 36.5039 54.0626 36.9722C52.7073 37.9087 51.4156 38.6005 50.1874 39.0475C49.3827 39.3455 48.5992 39.4945 47.8368 39.4945C47.2863 39.4945 46.8733 39.3668 46.598 39.1114C46.3227 38.8559 46.1851 38.4834 46.1851 37.9939C46.1851 37.6746 46.2698 37.2383 46.4392 36.6849L47.7098 32.3427C45.8886 34.5351 43.7181 36.4188 41.1981 37.9939C39.6523 38.973 38.2335 39.4626 36.9417 39.4626C35.7135 39.4626 34.7712 39.0262 34.1147 38.1535C33.2253 36.9828 32.7806 35.4503 32.7806 33.5559C32.7806 31.2997 33.3736 28.7881 34.5594 26.021C35.7665 23.254 37.3758 20.7423 39.3876 18.4861C41.3993 16.2299 43.5169 14.5696 45.7404 13.5054C47.4557 12.6966 49.658 12.2921 52.3474 12.2921C53.025 12.2921 53.7132 12.3347 54.412 12.4198L55.1744 11.1747ZM51.2356 16.0596C50.0921 15.8255 49.1286 15.7084 48.3451 15.7084C46.4392 15.7084 44.7769 16.2405 43.3581 17.3048C41.9393 18.3477 40.6158 20.2421 39.3876 22.9879C38.1805 25.7124 37.577 28.4369 37.577 31.1614C37.577 32.6088 37.8205 33.6517 38.3076 34.2903C38.7946 34.9288 39.4299 35.2481 40.2134 35.2481C41.6746 35.2481 43.2416 34.4606 44.9145 32.8855C46.5874 31.2891 47.8157 29.0009 48.5992 26.021L51.2356 16.0596Z" fill="#1C77FF"/>
<path d="M61.7813 19.1885L60.7013 18.071C63.4119 15.4743 65.5718 13.7502 67.1812 12.8988C68.7906 12.0474 70.167 11.6217 71.3106 11.6217C71.7553 11.6217 72.1047 11.7174 72.3588 11.909C72.6129 12.1006 72.7399 12.3241 72.7399 12.5795C72.7399 12.7711 72.687 13.1116 72.5811 13.6012L71.1517 20.0186C73.3117 17.6134 76.0222 15.3678 79.2834 13.2819C81.0198 12.1964 82.4492 11.6536 83.5715 11.6536C84.3974 11.6536 85.0433 11.9197 85.5091 12.4518C85.975 12.9839 86.208 13.7502 86.208 14.7506C86.208 15.4104 86.1127 16.1554 85.9221 16.9855C85.5833 18.369 84.6939 21.3809 83.2539 26.021C81.8986 30.3632 81.221 33.2473 81.221 34.6734C81.221 35.0991 81.2845 35.4184 81.4116 35.6312C81.5386 35.8441 81.7186 35.9505 81.9516 35.9505C82.5657 35.9505 83.5292 35.3545 84.8421 34.1626C85.7738 33.3112 86.7056 32.5236 87.6373 31.7999L88.4314 32.9493C86.4832 35.1204 84.4609 36.8658 82.3645 38.1855C81.0304 39.0369 79.9292 39.4626 79.061 39.4626C78.2563 39.4626 77.6316 39.1646 77.1869 38.5686C76.7422 37.9939 76.5199 37.0467 76.5199 35.727C76.5199 33.8326 77.6952 29.118 80.0457 21.5831C80.7657 18.9012 81.1257 17.3367 81.1257 16.8897C81.1257 16.2299 80.7339 15.9 79.9504 15.9C79.1034 15.9 78.0128 16.3469 76.6787 17.2409C74.6881 18.5606 73.0258 20.1144 71.6917 21.9024C70.8447 23.0518 70.1353 24.8823 69.5635 27.3939L66.9906 38.5367H62.2578C63.1472 35.3439 63.9201 32.2895 64.5766 29.3734L67.4036 17.2409C67.5094 16.7514 67.5624 16.4002 67.5624 16.1873C67.5624 15.6126 67.3506 15.3253 66.9271 15.3253C66.5883 15.3253 66.1012 15.5488 65.466 15.9957C64.153 16.8684 62.9248 17.9327 61.7813 19.1885Z" fill="#1C77FF"/>
<path d="M112.223 12.5795H116.733L113.747 23.7222C111.99 30.1929 111.111 33.8752 111.111 34.7692C111.111 35.1736 111.206 35.4822 111.397 35.6951C111.588 35.9079 111.799 36.0144 112.032 36.0144C112.392 36.0144 112.816 35.8547 113.303 35.5355C114.002 35.0459 115.325 33.8114 117.273 31.8319L118.322 33.0132C114.065 37.4618 110.931 39.6861 108.919 39.6861C108.242 39.6861 107.659 39.42 107.172 38.8879C106.706 38.377 106.473 37.6427 106.473 36.6849C106.473 35.578 106.706 34.0987 107.172 32.2469C105.288 34.418 102.958 36.323 100.184 37.962C98.3419 39.0475 96.7431 39.5903 95.3878 39.5903C94.6466 39.5903 94.0643 39.3455 93.6408 38.8559C93.2172 38.3664 93.0055 37.5895 93.0055 36.5252C93.0055 35.6951 93.1008 34.8011 93.2914 33.8433C93.5667 32.5023 94.2655 29.8098 95.3878 25.7656C96.8066 20.6359 97.516 17.5602 97.516 16.5385C97.516 15.9425 97.3042 15.6445 96.8807 15.6445C96.4995 15.6445 95.9807 15.8467 95.3243 16.2512C94.6678 16.6343 93.5455 17.5815 91.9573 19.0927L90.5596 17.9753C93.3972 15.421 95.5572 13.7502 97.0395 12.9626C98.543 12.1538 99.7501 11.7494 100.661 11.7494C101.169 11.7494 101.582 11.9409 101.899 12.3241C102.217 12.6859 102.376 13.2606 102.376 14.0482C102.376 15.5168 101.614 19.1247 100.089 24.8716C98.7336 30.0439 98.056 32.9919 98.056 33.7156C98.056 34.1626 98.1936 34.5457 98.4689 34.865C98.7654 35.1842 99.083 35.3439 99.4218 35.3439C100.608 35.3439 102.291 34.3648 104.472 32.4065C106.653 30.427 108.083 28.1815 108.761 25.6698L112.223 12.5795Z" fill="#1C77FF"/>
<path d="M126.548 38.5686H121.816L124.039 29.98C125.119 25.7656 126.061 21.764 126.866 17.9753C127.057 17.0387 127.152 16.4534 127.152 16.2192C127.152 15.7084 126.919 15.453 126.453 15.453C126.136 15.453 125.648 15.6765 124.992 16.1235C124.336 16.5492 123.15 17.6241 121.434 19.3481L120.45 18.2307C122.483 16.0383 124.505 14.3994 126.517 13.3138C128.55 12.207 130.106 11.6536 131.186 11.6536C131.567 11.6536 131.864 11.7494 132.075 11.9409C132.308 12.1112 132.425 12.3347 132.425 12.6114C132.425 12.8881 132.287 13.6225 132.012 14.8144L130.646 20.5295C132.785 17.1451 135.199 14.2504 137.888 11.8452C139.18 10.6958 140.26 10.1211 141.128 10.1211C141.763 10.1211 142.293 10.3339 142.716 10.7596C143.14 11.164 143.352 11.6429 143.352 12.1964C143.352 12.7711 143.14 13.2606 142.716 13.665C142.314 14.0694 141.287 14.5484 139.635 15.1018C138.068 15.6339 136.787 16.2725 135.792 17.0174C134.818 17.7624 133.738 18.9012 132.552 20.4337C131.387 21.9662 130.572 23.3072 130.106 24.4566C129.64 25.5847 128.931 28.224 127.978 32.3746L126.548 38.5686Z" fill="#1C77FF"/>
<path d="M161.838 11.1747L163.935 10.7277L161.553 18.8054C160.6 22.0194 159.7 25.723 158.853 29.9162C158.387 32.1937 158.154 33.6624 158.154 34.3222C158.154 34.982 158.418 35.312 158.948 35.312C159.287 35.312 159.827 35.0885 160.568 34.6415C161.881 33.8539 163.141 32.8748 164.348 31.7041L165.364 32.9493C162.95 35.163 161.404 36.5039 160.727 36.9722C159.371 37.9087 158.08 38.6005 156.851 39.0475C156.047 39.3455 155.263 39.4945 154.501 39.4945C153.95 39.4945 153.537 39.3668 153.262 39.1114C152.987 38.8559 152.849 38.4834 152.849 37.9939C152.849 37.6746 152.934 37.2383 153.103 36.6849L154.374 32.3427C152.553 34.5351 150.382 36.4188 147.862 37.9939C146.316 38.973 144.898 39.4626 143.606 39.4626C142.378 39.4626 141.435 39.0262 140.779 38.1535C139.889 36.9828 139.445 35.4503 139.445 33.5559C139.445 31.2997 140.038 28.7881 141.223 26.021C142.431 23.254 144.04 20.7423 146.052 18.4861C148.063 16.2299 150.181 14.5696 152.404 13.5054C154.12 12.6966 156.322 12.2921 159.011 12.2921C159.689 12.2921 160.377 12.3347 161.076 12.4198L161.838 11.1747ZM157.9 16.0596C156.756 15.8255 155.793 15.7084 155.009 15.7084C153.103 15.7084 151.441 16.2405 150.022 17.3048C148.603 18.3477 147.28 20.2421 146.052 22.9879C144.845 25.7124 144.241 28.4369 144.241 31.1614C144.241 32.6088 144.485 33.6517 144.972 34.2903C145.459 34.9288 146.094 35.2481 146.878 35.2481C148.339 35.2481 149.906 34.4606 151.579 32.8855C153.252 31.2891 154.48 29.0009 155.263 26.021L157.9 16.0596Z" fill="#1C77FF"/>
<path d="M175.719 28.0325H173.877C175.254 17.8795 176.238 9.2803 176.831 2.23493C176.852 1.83052 176.948 1.54317 177.117 1.37289C177.435 1.0749 178.038 0.808833 178.928 0.574697C180.389 0.191566 181.405 0 181.977 0C182.422 0 182.644 0.223493 182.644 0.67048C182.644 0.968472 182.559 1.36225 182.39 1.8518C182.115 2.66064 181.183 6.13011 179.595 12.2602L175.719 28.0325ZM174.004 31.6722C174.83 31.6722 175.518 31.9915 176.069 32.63C176.641 33.2473 176.926 34.0349 176.926 34.9927C176.926 36.3762 176.598 37.4618 175.942 38.2493C175.285 39.0369 174.459 39.4306 173.464 39.4306C172.638 39.4306 171.939 39.1433 171.368 38.5686C170.817 37.9726 170.542 37.217 170.542 36.3017C170.542 34.9608 170.934 33.7901 171.717 32.7897C172.289 32.0447 173.051 31.6722 174.004 31.6722Z" fill="#1C77FF"/>
<path d="M204.005 19.2699H205.088V32.2529C205.088 33.4371 204.883 34.4036 204.472 35.1525C204.068 35.9013 203.522 36.4557 202.835 36.8156C202.154 37.1697 201.388 37.3468 200.54 37.3468C199.673 37.3468 198.896 37.1842 198.209 36.8592C197.528 36.5283 196.988 36.0726 196.589 35.4921C196.191 34.9116 195.994 34.2411 196 33.4806H197.074C197.069 34.0379 197.216 34.5313 197.516 34.9609C197.822 35.3847 198.238 35.7214 198.764 35.971C199.289 36.2148 199.881 36.3367 200.54 36.3367C201.175 36.3367 201.755 36.2003 202.281 35.9275C202.806 35.6546 203.222 35.2192 203.528 34.6213C203.84 34.0234 203.999 33.2339 204.005 32.2529V19.2699Z" fill="#1C77FF"/>
<path d="M224.328 28.1865C224.328 30.0266 224.01 31.6346 223.375 33.0104C222.74 34.3804 221.856 35.4456 220.724 36.2061C219.598 36.9665 218.299 37.3468 216.826 37.3468C215.347 37.3468 214.042 36.9665 212.91 36.2061C211.784 35.4398 210.903 34.3717 210.268 33.0017C209.633 31.6259 209.315 30.0208 209.315 28.1865C209.315 26.3463 209.633 24.7412 210.268 23.3712C210.909 22.0012 211.793 20.936 212.919 20.1755C214.045 19.4093 215.347 19.0261 216.826 19.0261C218.299 19.0261 219.598 19.4064 220.724 20.1668C221.856 20.9273 222.74 21.9954 223.375 23.3712C224.01 24.7412 224.328 26.3463 224.328 28.1865ZM223.271 28.1865C223.271 26.532 222.994 25.0982 222.439 23.8849C221.891 22.6717 221.131 21.7342 220.161 21.0724C219.191 20.4048 218.079 20.071 216.826 20.071C215.573 20.071 214.461 20.4019 213.491 21.0637C212.52 21.7197 211.758 22.6572 211.204 23.8762C210.655 25.0895 210.381 26.5262 210.381 28.1865C210.381 29.8293 210.652 31.2602 211.195 32.4793C211.744 33.6925 212.503 34.6329 213.473 35.3005C214.444 35.9681 215.561 36.3019 216.826 36.3019C218.079 36.3019 219.191 35.971 220.161 35.3092C221.131 34.6416 221.891 33.7012 222.439 32.488C222.994 31.2747 223.271 29.8409 223.271 28.1865Z" fill="#1C77FF"/>
<path d="M228.56 37.103V19.2699H234.321C235.395 19.2699 236.302 19.4615 237.041 19.8446C237.78 20.2278 238.34 20.7647 238.721 21.4555C239.108 22.1463 239.302 22.9503 239.302 23.8675C239.302 24.5873 239.186 25.2259 238.955 25.7832C238.724 26.3405 238.401 26.802 237.985 27.1677C237.575 27.5276 237.093 27.7772 236.538 27.9165V28.021C237.151 28.0674 237.719 28.2822 238.245 28.6654C238.771 29.0427 239.192 29.5564 239.51 30.2066C239.833 30.8568 239.995 31.6143 239.995 32.4793C239.995 33.3907 239.799 34.1946 239.406 34.8913C239.019 35.5821 238.438 36.1248 237.665 36.5196C236.891 36.9085 235.932 37.103 234.789 37.103H228.56ZM229.643 36.0929H234.789C236.123 36.0929 237.148 35.7562 237.864 35.0828C238.586 34.4094 238.947 33.5416 238.947 32.4793C238.947 31.7304 238.771 31.0599 238.418 30.4678C238.072 29.8757 237.59 29.4084 236.972 29.0659C236.354 28.7176 235.637 28.5435 234.823 28.5435H229.643V36.0929ZM229.643 27.5508H234.693C235.45 27.5508 236.091 27.3854 236.616 27.0545C237.148 26.7236 237.552 26.2795 237.829 25.7222C238.112 25.1649 238.254 24.5467 238.254 23.8675C238.254 22.7646 237.913 21.8909 237.231 21.2465C236.55 20.6022 235.58 20.28 234.321 20.28H229.643V27.5508Z" fill="#1C77FF"/>
<path d="M260.684 23.7282C260.592 22.6194 260.141 21.7226 259.333 21.0376C258.53 20.3526 257.491 20.0101 256.214 20.0101C255.354 20.0101 254.588 20.1697 253.918 20.489C253.249 20.8083 252.723 21.2436 252.342 21.7951C251.961 22.3466 251.77 22.9793 251.77 23.6934C251.77 24.152 251.857 24.567 252.03 24.9385C252.209 25.3043 252.46 25.6322 252.784 25.9225C253.107 26.2069 253.491 26.4566 253.936 26.6713C254.38 26.8861 254.871 27.0748 255.409 27.2373L257.349 27.812C258.013 28.0152 258.625 28.2503 259.186 28.5173C259.752 28.7844 260.242 29.1036 260.658 29.4752C261.08 29.8409 261.406 30.2705 261.637 30.7639C261.874 31.2573 261.992 31.8262 261.992 32.4706C261.992 33.411 261.75 34.2527 261.265 34.9957C260.785 35.7388 260.101 36.3251 259.212 36.7547C258.328 37.1784 257.285 37.3903 256.084 37.3903C254.941 37.3903 253.944 37.1958 253.095 36.8069C252.252 36.418 251.585 35.8781 251.094 35.1873C250.603 34.4907 250.326 33.6896 250.263 32.784H251.372C251.429 33.5213 251.663 34.1598 252.073 34.6997C252.489 35.2337 253.041 35.6459 253.728 35.9362C254.415 36.2264 255.201 36.3715 256.084 36.3715C257.037 36.3715 257.877 36.209 258.605 35.8839C259.333 35.553 259.902 35.0944 260.312 34.5081C260.722 33.9218 260.927 33.2397 260.927 32.4618C260.927 31.8349 260.78 31.2979 260.485 30.851C260.19 30.404 259.754 30.0179 259.177 29.6929C258.605 29.3678 257.895 29.0775 257.046 28.8221L254.975 28.1952C253.589 27.7714 252.53 27.1938 251.796 26.4624C251.068 25.7309 250.705 24.8195 250.705 23.7282C250.705 22.811 250.947 21.9983 251.432 21.2901C251.917 20.5761 252.576 20.0159 253.407 19.6095C254.245 19.2032 255.189 19 256.24 19C257.297 19 258.23 19.2061 259.038 19.6182C259.847 20.0246 260.488 20.5848 260.961 21.2988C261.435 22.007 261.698 22.8168 261.75 23.7282H260.684Z" fill="#1C77FF"/>
<path d="M266.272 37.103V19.2699H276.148V20.28H267.355V27.6727H275.619V28.6828H267.355V36.0929H276.356V37.103H266.272Z" fill="#1C77FF"/>
<path d="M279.953 37.103H278.809L285.211 19.2699H286.459L292.861 37.103H291.717L285.878 20.6718H285.792L279.953 37.103ZM281.573 30.3895H290.097V31.3995H281.573V30.3895Z" fill="#1C77FF"/>
<path d="M296.17 37.103V19.2699H301.636C302.757 19.2699 303.721 19.4905 304.53 19.9317C305.338 20.3729 305.959 20.9853 306.392 21.769C306.825 22.5469 307.042 23.4525 307.042 24.4857C307.042 25.5074 306.825 26.4072 306.392 27.1851C305.959 27.9572 305.338 28.5609 304.53 28.9963C303.727 29.4316 302.765 29.6493 301.645 29.6493H296.75V28.6305H301.619C302.531 28.6305 303.311 28.4593 303.958 28.1168C304.605 27.7743 305.101 27.2954 305.448 26.68C305.794 26.0589 305.968 25.3275 305.968 24.4857C305.968 23.6382 305.794 22.901 305.448 22.274C305.101 21.6413 304.602 21.1508 303.949 20.8025C303.302 20.4542 302.523 20.28 301.61 20.28H297.253V37.103H296.17ZM303.455 29.0224L307.822 37.103H306.574L302.234 29.0224H303.455Z" fill="#1C77FF"/>
<path d="M324.883 24.8428H323.774C323.659 24.239 323.442 23.6556 323.125 23.0925C322.807 22.5236 322.397 22.0128 321.895 21.56C321.398 21.1014 320.82 20.7386 320.162 20.4716C319.504 20.2045 318.776 20.071 317.979 20.071C316.812 20.071 315.738 20.3845 314.756 21.0114C313.78 21.6326 312.998 22.5469 312.409 23.7543C311.825 24.9618 311.534 26.4391 311.534 28.1865C311.534 29.9454 311.825 31.4286 312.409 32.636C312.998 33.8434 313.78 34.7577 314.756 35.3789C315.738 35.9942 316.812 36.3019 317.979 36.3019C318.776 36.3019 319.504 36.1713 320.162 35.91C320.82 35.643 321.398 35.2831 321.895 34.8303C322.397 34.3717 322.807 33.858 323.125 33.2891C323.442 32.7202 323.659 32.1339 323.774 31.5301H324.883C324.756 32.25 324.511 32.9553 324.147 33.6461C323.789 34.3369 323.315 34.9638 322.726 35.5269C322.143 36.0842 321.453 36.5283 320.656 36.8592C319.865 37.1842 318.972 37.3468 317.979 37.3468C316.5 37.3468 315.198 36.9695 314.072 36.2148C312.946 35.4543 312.062 34.3862 311.421 33.0104C310.786 31.6346 310.468 30.0266 310.468 28.1865C310.468 26.3463 310.786 24.7383 311.421 23.3625C312.062 21.9867 312.946 20.9215 314.072 20.1668C315.198 19.4064 316.5 19.0261 317.979 19.0261C318.972 19.0261 319.865 19.1916 320.656 19.5225C321.453 19.8475 322.143 20.2887 322.726 20.846C323.315 21.3975 323.789 22.0186 324.147 22.7094C324.511 23.4002 324.756 24.1113 324.883 24.8428Z" fill="#1C77FF"/>
<path d="M329.046 37.103V19.2699H330.129V27.6727H340.819V19.2699H341.902V37.103H340.819V28.6828H330.129V37.103H329.046Z" fill="#1C77FF"/>
</svg>
