<svg width="437" height="131" viewBox="0 0 437 131" fill="none" xmlns="http://www.w3.org/2000/svg">
<path d="M17.632 43.112L15.2 39.5572L20.824 35.7754C26.296 32.0441 30.1467 29.649 32.376 28.5901C33.6427 27.985 34.808 27.6824 35.872 27.6824C36.936 27.6824 37.9493 28.2875 38.912 29.4977C43.3707 35.0947 47.12 42.6582 50.16 52.1882C53.2 61.6678 54.72 70.8701 54.72 79.795C54.72 80.9548 54.6693 82.7196 54.568 85.0895C63.1307 69.4078 67.412 56.9532 67.412 47.7257C67.412 45.8097 66.9813 43.2633 66.12 40.0866C65.208 36.557 64.752 34.0358 64.752 32.5231C64.752 31.0608 65.208 29.8507 66.12 28.8926C67.0827 27.9346 68.2733 27.4555 69.692 27.4555C71.4653 27.4555 72.884 28.1363 73.948 29.4977C75.0627 30.8591 75.62 32.8004 75.62 35.3216C75.62 41.8262 74.1253 49.9444 71.136 59.6761C68.1467 69.3574 63.4347 79.795 57 90.989C50.616 102.133 44.764 110.402 39.444 115.797C34.1747 121.243 29.0573 125.126 24.092 127.445C19.1773 129.815 14.516 131 10.108 131C6.764 131 4.256 130.37 2.584 129.109C0.861333 127.899 0 126.437 0 124.722C0 123.21 0.658667 121.899 1.976 120.789C3.29333 119.73 5.06667 119.201 7.296 119.201C9.01867 119.201 11.3747 119.529 14.364 120.184C17.556 120.89 19.7347 121.243 20.9 121.243C23.9907 121.243 27.2587 119.957 30.704 117.386C35.416 113.856 39.14 109.646 41.876 104.755C44.6627 99.8635 46.056 94.9221 46.056 89.9301C46.056 82.9213 45.0173 74.5006 42.94 64.668C40.9133 54.8355 38.0253 47.3224 34.276 42.1288C32.4013 39.4563 30.4 38.1201 28.272 38.1201C25.7893 38.1201 22.2427 39.7841 17.632 43.112Z" fill="#1C77FF"/>
<path d="M132.012 26.4723L137.028 25.4134L131.328 44.5491C129.048 52.163 126.895 60.9367 124.868 70.8701C123.753 76.2654 123.196 79.7446 123.196 81.3077C123.196 82.8709 123.829 83.6524 125.096 83.6524C125.907 83.6524 127.199 83.123 128.972 82.0641C132.113 80.1984 135.128 77.8789 138.016 75.1057L140.448 78.0554C134.672 83.2995 130.973 86.4761 129.352 87.5854C126.109 89.8041 123.019 91.4428 120.08 92.5017C118.155 93.2077 116.28 93.5606 114.456 93.5606C113.139 93.5606 112.151 93.2581 111.492 92.653C110.833 92.0479 110.504 91.1655 110.504 90.0058C110.504 89.2494 110.707 88.2157 111.112 86.9047L114.152 76.6184C109.795 81.812 104.601 86.2744 98.572 90.0058C94.8733 92.3252 91.4787 93.485 88.388 93.485C85.4493 93.485 83.1947 92.4513 81.624 90.3839C79.496 87.6107 78.432 83.9802 78.432 79.4925C78.432 74.1476 79.8507 68.1977 82.688 61.6426C85.576 55.0876 89.4267 49.1376 94.24 43.7927C99.0533 38.4478 104.12 34.5148 109.44 31.9937C113.544 30.0776 118.813 29.1195 125.248 29.1195C126.869 29.1195 128.516 29.2204 130.188 29.4221L132.012 26.4723ZM122.588 38.0445C119.852 37.4898 117.547 37.2125 115.672 37.2125C111.112 37.2125 107.135 38.4731 103.74 40.9942C100.345 43.465 97.1787 47.9527 94.24 54.4573C91.352 60.9115 89.908 67.3657 89.908 73.8199C89.908 77.2487 90.4907 79.7194 91.656 81.2321C92.8213 82.7448 94.3413 83.5012 96.216 83.5012C99.712 83.5012 103.461 81.6355 107.464 77.9042C111.467 74.1224 114.405 68.7019 116.28 61.6426L122.588 38.0445Z" fill="#1C77FF"/>
<path d="M147.82 45.4567L145.236 42.8095C151.721 36.6578 156.889 32.5735 160.74 30.5566C164.591 28.5396 167.884 27.5312 170.62 27.5312C171.684 27.5312 172.52 27.7581 173.128 28.2119C173.736 28.6657 174.04 29.1952 174.04 29.8002C174.04 30.254 173.913 31.0608 173.66 32.2206L170.24 47.4232C175.408 41.7254 181.893 36.4057 189.696 31.4642C193.851 28.8926 197.271 27.6068 199.956 27.6068C201.932 27.6068 203.477 28.2371 204.592 29.4977C205.707 30.7583 206.264 32.5735 206.264 34.9434C206.264 36.5065 206.036 38.2714 205.58 40.2379C204.769 43.5154 202.641 50.6503 199.196 61.6426C195.953 71.929 194.332 78.7614 194.332 82.1397C194.332 83.1482 194.484 83.9045 194.788 84.4088C195.092 84.913 195.523 85.1651 196.08 85.1651C197.549 85.1651 199.855 83.7533 202.996 80.9296C205.225 78.9126 207.455 77.047 209.684 75.3326L211.584 78.0554C206.923 83.1986 202.084 87.3333 197.068 90.4596C193.876 92.4765 191.241 93.485 189.164 93.485C187.239 93.485 185.744 92.7791 184.68 91.3672C183.616 90.0058 183.084 87.7619 183.084 84.6357C183.084 80.148 185.896 68.9792 191.52 51.1293C193.243 44.776 194.104 41.0699 194.104 40.011C194.104 38.4478 193.167 37.6663 191.292 37.6663C189.265 37.6663 186.656 38.7252 183.464 40.843C178.701 43.9692 174.724 47.6501 171.532 51.8857C169.505 54.6085 167.808 58.945 166.44 64.8949L160.284 91.2916H148.96C151.088 83.7281 152.937 76.4923 154.508 69.5843L161.272 40.843C161.525 39.6832 161.652 38.8512 161.652 38.347C161.652 36.9856 161.145 36.3049 160.132 36.3049C159.321 36.3049 158.156 36.8343 156.636 37.8932C153.495 39.9605 150.556 42.4817 147.82 45.4567Z" fill="#1C77FF"/>
<path d="M268.508 29.8002H279.3L272.156 56.1969C267.951 71.5256 265.848 80.2488 265.848 82.3666C265.848 83.3247 266.076 84.0558 266.532 84.5601C266.988 85.0643 267.495 85.3164 268.052 85.3164C268.913 85.3164 269.927 84.9382 271.092 84.1819C272.764 83.0221 275.931 80.0976 280.592 75.4082L283.1 78.2067C272.916 88.7452 265.417 94.0144 260.604 94.0144C258.983 94.0144 257.589 93.3841 256.424 92.1236C255.309 90.9134 254.752 89.1738 254.752 86.9047C254.752 84.2827 255.309 80.7783 256.424 76.3915C251.915 81.5346 246.341 86.0475 239.704 89.9301C235.296 92.5017 231.471 93.7875 228.228 93.7875C226.455 93.7875 225.061 93.2077 224.048 92.0479C223.035 90.8882 222.528 89.0477 222.528 86.5266C222.528 84.5601 222.756 82.4423 223.212 80.1732C223.871 76.9965 225.543 70.618 228.228 61.0375C231.623 48.8855 233.32 41.5993 233.32 39.179C233.32 37.7671 232.813 37.0612 231.8 37.0612C230.888 37.0612 229.647 37.5402 228.076 38.4983C226.505 39.4059 223.82 41.6497 220.02 45.2298L216.676 42.5826C223.465 36.5318 228.633 32.5735 232.18 30.7079C235.777 28.7918 238.665 27.8337 240.844 27.8337C242.06 27.8337 243.048 28.2875 243.808 29.1952C244.568 30.0523 244.948 31.4138 244.948 33.2794C244.948 36.7587 243.124 45.3054 239.476 58.9197C236.233 71.1726 234.612 78.1563 234.612 79.8707C234.612 80.9296 234.941 81.8372 235.6 82.5935C236.309 83.3499 237.069 83.7281 237.88 83.7281C240.717 83.7281 244.745 81.4086 249.964 76.7696C255.183 72.0803 258.603 66.7606 260.224 60.8106L268.508 29.8002Z" fill="#1C77FF"/>
<path d="M302.784 91.3672H291.46L296.78 71.0214C299.364 61.0375 301.619 51.5579 303.544 42.5826C304 40.3639 304.228 38.9773 304.228 38.4226C304.228 37.2125 303.671 36.6074 302.556 36.6074C301.796 36.6074 300.631 37.1368 299.06 38.1957C297.489 39.2042 294.652 41.7506 290.548 45.8349L288.192 43.1876C293.056 37.994 297.895 34.1114 302.708 31.5398C307.572 28.9178 311.296 27.6068 313.88 27.6068C314.792 27.6068 315.501 27.8337 316.008 28.2875C316.565 28.6909 316.844 29.2204 316.844 29.8759C316.844 30.5314 316.515 32.271 315.856 35.0947L312.588 48.6334C317.705 40.6161 323.481 33.7585 329.916 28.0606C333.007 25.3378 335.591 23.9763 337.668 23.9763C339.188 23.9763 340.455 24.4806 341.468 25.489C342.481 26.4471 342.988 27.5816 342.988 28.8926C342.988 30.254 342.481 31.4138 341.468 32.3718C340.505 33.3299 338.048 34.4644 334.096 35.7754C330.347 37.036 327.281 38.5487 324.9 40.3135C322.569 42.0783 319.985 44.776 317.148 48.4065C314.361 52.037 312.411 55.2136 311.296 57.9365C310.181 60.6089 308.484 66.8614 306.204 76.694L302.784 91.3672Z" fill="#1C77FF"/>
<path d="M387.22 26.4723L392.236 25.4134L386.536 44.5491C384.256 52.163 382.103 60.9367 380.076 70.8701C378.961 76.2654 378.404 79.7446 378.404 81.3077C378.404 82.8709 379.037 83.6524 380.304 83.6524C381.115 83.6524 382.407 83.123 384.18 82.0641C387.321 80.1984 390.336 77.8789 393.224 75.1057L395.656 78.0554C389.88 83.2995 386.181 86.4761 384.56 87.5854C381.317 89.8041 378.227 91.4428 375.288 92.5017C373.363 93.2077 371.488 93.5606 369.664 93.5606C368.347 93.5606 367.359 93.2581 366.7 92.653C366.041 92.0479 365.712 91.1655 365.712 90.0058C365.712 89.2494 365.915 88.2157 366.32 86.9047L369.36 76.6184C365.003 81.812 359.809 86.2744 353.78 90.0058C350.081 92.3252 346.687 93.485 343.596 93.485C340.657 93.485 338.403 92.4513 336.832 90.3839C334.704 87.6107 333.64 83.9802 333.64 79.4925C333.64 74.1476 335.059 68.1977 337.896 61.6426C340.784 55.0876 344.635 49.1376 349.448 43.7927C354.261 38.4478 359.328 34.5148 364.648 31.9937C368.752 30.0776 374.021 29.1195 380.456 29.1195C382.077 29.1195 383.724 29.2204 385.396 29.4221L387.22 26.4723ZM377.796 38.0445C375.06 37.4898 372.755 37.2125 370.88 37.2125C366.32 37.2125 362.343 38.4731 358.948 40.9942C355.553 43.465 352.387 47.9527 349.448 54.4573C346.56 60.9115 345.116 67.3657 345.116 73.8199C345.116 77.2487 345.699 79.7194 346.864 81.2321C348.029 82.7448 349.549 83.5012 351.424 83.5012C354.92 83.5012 358.669 81.6355 362.672 77.9042C366.675 74.1224 369.613 68.7019 371.488 61.6426L377.796 38.0445Z" fill="#1C77FF"/>
<path d="M420.432 66.4076H416.024C419.317 42.3557 421.673 21.9846 423.092 5.29446C423.143 4.33641 423.371 3.6557 423.776 3.25231C424.536 2.54638 425.98 1.91609 428.108 1.36143C431.604 0.453811 434.036 0 435.404 0C436.468 0 437 0.529446 437 1.58834C437 2.29426 436.797 3.2271 436.392 4.38684C435.733 6.30293 433.504 14.5219 429.704 29.0439L420.432 66.4076ZM416.328 75.03C418.304 75.03 419.951 75.7864 421.268 77.2991C422.636 78.7614 423.32 80.627 423.32 82.8961C423.32 86.1736 422.535 88.7452 420.964 90.6109C419.393 92.4765 417.417 93.4094 415.036 93.4094C413.06 93.4094 411.388 92.7286 410.02 91.3672C408.703 89.9554 408.044 88.1653 408.044 85.9971C408.044 82.8204 408.981 80.0471 410.856 77.6773C412.224 75.9124 414.048 75.03 416.328 75.03Z" fill="#1C77FF"/>
</svg>
